<svg width="52" height="52" fill="none" xmlns="http://www.w3.org/2000/svg"><circle cx="26" cy="26" r="25" stroke="#0FE" stroke-width="1.5"/><path d="M20.355 22.77h-4.302v13.72h4.302V22.77ZM31.992 22.473c-.159-.02-.327-.03-.495-.04a5.02 5.02 0 0 0-4.243 1.943c-.129.169-.188.268-.188.268V22.81h-4.114v13.719h4.302v-6.443c0-.932-.07-1.923.396-2.776.397-.713 1.11-1.07 1.914-1.07 2.378 0 2.428 2.15 2.428 2.349v8h4.302v-8.952c0-3.063-1.556-4.867-4.302-5.164ZM18.204 20.996a2.498 2.498 0 1 0 0-4.996 2.498 2.498 0 0 0 0 4.996Z" stroke="#0FE" stroke-width="1.5"/></svg>