<svg width="52" height="52" fill="none" xmlns="http://www.w3.org/2000/svg"><circle cx="26" cy="26" r="25" stroke="#0FE" stroke-width="1.5"/><path d="M17.917 33.25a.773.773 0 0 1-.02.026l.064.047.237-.763-.15.009-.41.503m.28.177c.037-.051.057-.093.064-.107v-.002a1.9 1.9 0 0 0-.02.038.733.733 0 0 1-.045.072Zm0 0a.632.632 0 0 1-.02.026 9.307 9.307 0 0 1-.26-.203m0 0 .408-.503L17 32.563c.307.252.308.25.309.248 0-.002.002-.005.328.26Zm3.155-3.674a3.16 3.16 0 0 1-.644-.653 2.42 2.42 0 0 0 .562-.154l1.614-.662-1.59-.715c-.8-.36-1.4-.784-1.804-1.3a2.939 2.939 0 0 1-.495-.945c.22.053.477.087.769.063l1.609-.134-1.14-1.143c-.73-.732-1.155-1.445-1.311-2.164a3.217 3.217 0 0 1-.002-1.331c1.557 1.554 3.361 2.651 5.501 3.215l.056.015c.104.03.232.065.365.092.182.044.362.1.561.162.105.032.215.067.334.102.16.046.332.093.498.125.157.03.362.058.57.032h.004c.153-.02.34-.068.515-.189.188-.13.31-.309.373-.499.1-.3.041-.614.015-.754l-.002-.01-.036-.188c-.06-.297-.105-.527-.06-.798.418-2.529 3.07-3.605 5.02-2.17.432.322.88.525 1.375.562.132.01.26.008.386-.005a4.698 4.698 0 0 0-.039.048l-.757.934 1.172.269.02.005c-.178.18-.328.384-.44.621-.154.33-.213.678-.224 1.035-.125 4.131-2.482 7.811-5.595 9.812-2.757 1.771-6.021 2.186-8.837.528 1.362-.23 2.642-.78 3.89-1.71l1.397-1.04-1.716-.3c-.8-.14-1.425-.388-1.913-.756Zm-2.43-6.032c-.797-1.137-1.041-2.363-.61-3.75l.61 3.75Zm7.792-.107c.366-.047.311-.316.229-.722-.061-.3-.138-.677-.07-1.094.505-3.05 3.78-4.439 6.206-2.65l-6.365 4.466Zm9.082-3.78c-.07.094-.144.185-.222.275l-.22-.078.442-.198Zm-.5-.599a2.243 2.243 0 0 1-.184.259l.184-.259Z" fill="#0FE" stroke="#0FE" stroke-width="1.5"/></svg>